<svg width="175" height="25" viewBox="0 0 175 25" fill="none" xmlns="http://www.w3.org/2000/svg">
<g id="Social">
<g id="1">
<g id="logo-twitter 2">
<g id="Group">
<path id="Vector" d="M19.8879 7.38024C19.1421 7.71012 18.3548 7.9163 17.5262 8.04C18.3548 7.54518 19.0178 6.76171 19.3078 5.8133C18.5206 6.26689 17.6505 6.59677 16.6975 6.80295C15.9517 6.01948 14.8745 5.52466 13.7143 5.52466C11.4769 5.52466 9.6539 7.339 9.6539 9.5657C9.6539 9.89558 9.69533 10.1842 9.7782 10.4729C6.42212 10.3079 3.39751 8.69977 1.36729 6.22566C1.03583 6.84418 0.828661 7.50395 0.828661 8.24618C0.828661 9.64817 1.53302 10.8852 2.65171 11.6275C1.98879 11.5862 1.36729 11.4213 0.787228 11.1326V11.1739C0.787228 13.1532 2.19595 14.8026 4.06044 15.1737C3.72897 15.2562 3.35608 15.2974 2.98318 15.2974C2.73458 15.2974 2.44455 15.2562 2.19595 15.2149C2.73458 16.8231 4.22617 18.0189 6.00779 18.0189C4.59907 19.091 2.85888 19.7508 0.95296 19.7508C0.621495 19.7508 0.290031 19.7508 0 19.7096C1.82305 20.8641 3.93614 21.5239 6.25639 21.5239C13.7558 21.5239 17.8576 15.3386 17.8576 9.97805C17.8576 9.81311 17.8576 9.60694 17.8576 9.442C18.6449 8.90594 19.3492 8.20494 19.8879 7.38024Z" fill="#131318"/>
</g>
</g>
</g>
<g id="2">
<g id="logo-fb-simple 2">
<g id="Group_2">
<path id="Vector_2" d="M55.2141 23.8904V14.0532H51.8878V10.2194H55.2141V7.39211C55.2141 4.11106 57.2277 2.32446 60.1687 2.32446C61.5774 2.32446 62.7882 2.42885 63.141 2.4755V5.90439L61.1013 5.90531C59.5018 5.90531 59.1922 6.66173 59.1922 7.77171V10.2194H63.0067L62.5101 14.0532H59.1921V23.8904H55.2141Z" fill="#131318"/>
</g>
</g>
</g>
<g id="3">
<g id="logo-instagram 1">
<g id="Group_3">
<path id="Vector_3" d="M107.198 2.88679C110.417 2.88679 110.799 2.89879 112.07 2.9565C112.835 2.96582 113.592 3.10555 114.309 3.36963C114.83 3.56924 115.302 3.87503 115.696 4.2673C116.09 4.65957 116.397 5.12963 116.598 5.64723C116.863 6.36098 117.004 7.11472 117.013 7.8757C117.071 9.14135 117.083 9.52076 117.083 12.7246C117.083 15.9285 117.071 16.3079 117.013 17.5735C117.004 18.3345 116.863 19.0882 116.598 19.802C116.397 20.3196 116.09 20.7896 115.696 21.1819C115.302 21.5742 114.83 21.88 114.309 22.0796C113.592 22.3437 112.835 22.4834 112.07 22.4927C110.799 22.5499 110.418 22.5624 107.198 22.5624C103.978 22.5624 103.597 22.5504 102.326 22.4927C101.561 22.4834 100.804 22.3437 100.087 22.0796C99.5667 21.88 99.0944 21.5742 98.7002 21.1819C98.3061 20.7896 97.9988 20.3196 97.7982 19.802C97.5329 19.0882 97.3925 18.3345 97.3831 17.5735C97.3257 16.3079 97.3131 15.9285 97.3131 12.7246C97.3131 9.52076 97.3252 9.14135 97.3831 7.8757C97.3925 7.11472 97.5329 6.36098 97.7982 5.64723C97.9988 5.12963 98.3061 4.65957 98.7002 4.2673C99.0944 3.87503 99.5667 3.56924 100.087 3.36963C100.804 3.10555 101.561 2.96582 102.326 2.9565C103.598 2.89936 103.979 2.88679 107.198 2.88679ZM107.198 0.724609C103.926 0.724609 103.513 0.738323 102.227 0.796606C101.226 0.816415 100.236 1.00498 99.2991 1.35429C98.495 1.6558 97.7667 2.12829 97.165 2.7388C96.551 3.33784 96.0758 4.06308 95.7727 4.86384C95.4217 5.79671 95.2322 6.78206 95.2123 7.77799C95.1549 9.05678 95.1411 9.46705 95.1411 12.724C95.1411 15.981 95.1549 16.3913 95.2135 17.6712C95.2334 18.6672 95.4228 19.6525 95.7738 20.5854C96.0766 21.386 96.5514 22.1113 97.165 22.7104C97.767 23.3211 98.4957 23.7936 99.3002 24.0949C100.238 24.4442 101.228 24.6328 102.228 24.6526C103.514 24.7098 103.925 24.7246 107.199 24.7246C110.474 24.7246 110.884 24.7109 112.17 24.6526C113.171 24.6328 114.161 24.4442 115.098 24.0949C115.899 23.786 116.626 23.3143 117.233 22.7097C117.84 22.1052 118.314 21.3813 118.624 20.5842C118.975 19.6514 119.164 18.666 119.184 17.6701C119.241 16.3913 119.255 15.981 119.255 12.724C119.255 9.46705 119.241 9.05678 119.183 7.77684C119.163 6.78092 118.973 5.79557 118.622 4.8627C118.32 4.06204 117.845 3.33681 117.231 2.73766C116.629 2.12701 115.901 1.65451 115.096 1.35315C114.159 1.00384 113.169 0.815272 112.168 0.795463C110.883 0.738323 110.471 0.724609 107.198 0.724609Z" fill="#131318"/>
<path id="Vector_4" d="M107.196 6.5625C105.971 6.5625 104.774 6.92389 103.756 7.60098C102.738 8.27807 101.944 9.24044 101.476 10.3664C101.007 11.4924 100.884 12.7313 101.123 13.9266C101.362 15.1219 101.952 16.2199 102.818 17.0817C103.684 17.9434 104.787 18.5303 105.988 18.7681C107.189 19.0058 108.434 18.8838 109.565 18.4174C110.697 17.951 111.664 17.1612 112.344 16.1479C113.024 15.1346 113.388 13.9432 113.388 12.7245C113.388 11.0902 112.735 9.5229 111.574 8.36731C110.413 7.21171 108.838 6.5625 107.196 6.5625ZM107.196 16.7243C106.401 16.7243 105.624 16.4897 104.963 16.0502C104.302 15.6107 103.787 14.986 103.483 14.2552C103.179 13.5243 103.099 12.7201 103.254 11.9442C103.409 11.1683 103.792 10.4556 104.354 9.8962C104.916 9.33682 105.632 8.95587 106.412 8.80154C107.192 8.6472 108 8.72641 108.734 9.02915C109.468 9.33189 110.096 9.84455 110.538 10.5023C110.979 11.1601 111.215 11.9334 111.215 12.7245C111.215 13.7853 110.792 14.8027 110.038 15.5528C109.284 16.3029 108.262 16.7243 107.196 16.7243Z" fill="#131318"/>
<path id="Vector_5" d="M113.633 7.75877C114.432 7.75877 115.08 7.11409 115.08 6.31884C115.08 5.52359 114.432 4.87891 113.633 4.87891C112.834 4.87891 112.186 5.52359 112.186 6.31884C112.186 7.11409 112.834 7.75877 113.633 7.75877Z" fill="#131318"/>
</g>
</g>
</g>
<g id="4">
<g id="logo-github 1">
<g id="Group_4">
<path id="Vector_6" fill-rule="evenodd" clip-rule="evenodd" d="M162.788 0.724609C156.397 0.724609 151.255 5.84194 151.255 12.2027C151.255 17.2722 154.571 21.5765 159.136 23.107C159.713 23.2026 159.905 22.8678 159.905 22.5331C159.905 22.2461 159.905 21.5287 159.905 20.5722C156.685 21.2896 156.013 19.0418 156.013 19.0418C155.484 17.7027 154.715 17.3679 154.715 17.3679C153.658 16.6505 154.811 16.6505 154.811 16.6505C155.965 16.7462 156.589 17.8462 156.589 17.8462C157.598 19.6157 159.28 19.0896 159.953 18.8027C160.049 18.0375 160.338 17.5592 160.674 17.2722C158.127 16.9853 155.436 15.981 155.436 11.581C155.436 10.3375 155.868 9.28538 156.637 8.52017C156.541 8.23322 156.109 7.0854 156.733 5.45934C156.733 5.45934 157.695 5.17238 159.905 6.65497C160.818 6.41585 161.827 6.27237 162.788 6.27237C163.749 6.27237 164.759 6.41585 165.672 6.65497C167.882 5.17238 168.843 5.45934 168.843 5.45934C169.468 7.03758 169.084 8.18539 168.939 8.52017C169.66 9.3332 170.141 10.3375 170.141 11.581C170.141 15.981 167.45 16.9375 164.855 17.2244C165.287 17.5592 165.624 18.2766 165.624 19.3287C165.624 20.8592 165.624 22.1026 165.624 22.4852C165.624 22.7722 165.816 23.1548 166.441 23.0591C171.006 21.5765 174.322 17.2722 174.322 12.2027C174.322 5.84194 169.18 0.724609 162.788 0.724609Z" fill="#131318"/>
</g>
</g>
</g>
</g>
</svg>
